<svg width="160" height="213" viewBox="0 0 160 213" fill="none" xmlns="http://www.w3.org/2000/svg">
<path d="M141.849 0H18.818C8.798 0 0 8.243 0 18V200C0 203.266 0.909001 205.988 2.374 208.091C4.126 210.605 6.947 212.046 9.972 212.045C12.832 212.045 15.877 210.772 18.689 208.37L73.733 161.635C75.433 160.183 77.875 159.351 80.414 159.351C82.952 159.351 85.389 160.183 87.094 161.639L141.954 208.363C144.776 210.772 147.611 212.046 150.466 212.046C155.294 212.046 160 208.322 160 200.001V18C160 8.243 151.869 0 141.849 0Z" fill="#CCCCCC"/>
</svg>
